<?xml version="1.0" encoding="UTF-8"?>
<svg enable-background="new 0 0 53.4 45" version="1.1" viewBox="0 0 53.4 45" xml:space="preserve" xmlns="http://www.w3.org/2000/svg">
<style type="text/css">
	.st0{fill:#FFFFFF;}
	.st1{fill:#006A71;}
</style>
<path class="st0" d="m14.7 32.3c4.2 0 7.7 1.3 7.7-0.7s-3.4-3.7-7.7-3.7-7.7 1.6-7.7 3.7c0 2 3.5 0.7 7.7 0.7z"/>
<path class="st0" d="m38.7 27.9c-4.3 0-7.7 1.6-7.7 3.7 0 2 3.5 0.7 7.7 0.7s7.7 1.3 7.7-0.7-3.4-3.7-7.7-3.7z"/>
<path class="st1" d="m38.7 0h-0.2c-3.3 0.2-2 5.6-1.4 9.3 0.9 5.7-4.7 2.4-10.4 2.4h-0.2c-5.7 0.1-11.1 3.2-10.3-2.4 0.6-3.7 1.9-9.1-1.4-9.3h-0.2c-14.6 0-14.4 11.2-14.4 22.3 0 12.6 11.8 22.7 26.5 22.7 14.6 0 26.5-10.2 26.5-22.7 0-11.1 0.2-22.3-14.5-22.3zm-31.7 31.6c0-2.1 3.4-3.7 7.7-3.7s7.7 1.7 7.7 3.7-3.5 0.7-7.7 0.7-7.7 1.3-7.7-0.7zm31.7 0.7c-4.2 0-7.7 1.3-7.7-0.7 0-2.1 3.4-3.7 7.7-3.7s7.7 1.7 7.7 3.7-3.5 0.7-7.7 0.7z"/>
</svg>
