<?xml version="1.0" encoding="UTF-8"?>
<svg data-name="Layer 1" viewBox="0 0 219.68 465.35" xmlns="http://www.w3.org/2000/svg">
<defs>
<style>.cls-1{fill:#006a71;}.cls-2{fill:#fefefe;}</style>
</defs>
<title>loving-kitty</title>
<path class="cls-1" transform="translate(-101.88 -17.33)" d="M165.11,252c-2.76-1.06-5.38-2-8-3.06C137.4,241,128,225.78,127.58,205.08c-.14-6-1.9-9.55-6.41-13.62-17-15.35-21.37-35.36-18.44-57.33.65-4.85,3.79-6.89,8.35-5,5.54,2.36,10.54,6,15.69,9.28s10.1,6.9,15.42,9.86c1.21.67,4.22-.17,5.34-1.33a65.29,65.29,0,0,1,42.66-20.51c4.21-.38,8.53.48,13.44.82-.61-4.12-1.31-8.33-1.85-12.56-1.43-11.31-1-22.33,5.81-32.12,4-5.75,7.38-6.59,11.46-1.25,11.2,14.63,22.49,29.33,32,45.08,3.77,6.26,2.89,15.32,4.22,23.76,21.26,7.36,31.81,27.22,44.45,45l1.43-.46c-2.78-9.57-4.78-19.46-8.52-28.64-5.7-14-12.49-27.56-19-41.22-14.71-30.8-18.2-62.66-9.22-95.7A63.7,63.7,0,0,1,268.46,19c.39-.83,2.09-1.91,2.58-1.66a5,5,0,0,1,2.23,2.83,10.94,10.94,0,0,1,0,4c-2.76,31.86,4,61.82,17.63,90.53,6.46,13.67,12.08,27.75,18.59,41.4,11.57,24.25,14.72,49.25,9.8,75.78a304,304,0,0,0-4.75,46.63c-.76,26.68-7.18,51.25-20.52,74.59-14.59,25.54-27.7,51.95-41,78.23-4.16,8.25-6.62,17.36-10,26-4,10.24-10.22,18.42-20.46,23.47-8.4,4.15-19.85,1.23-24.27-7.1-2-3.83-2.26-8,.29-11.4,8-10.71,10.62-23.48,14.58-35.79,2.27-7,.93-12.26-3.62-18.47-15.55-21.22-29.7-43.55-39.46-68-10.66-26.78-14.24-54.61-6.06-83C164.55,255.41,164.75,253.78,165.11,252Zm21.8-2.07c18.38,3.84,32.83-4.51,45.87-15.83,13.44-11.68,20.06-28.44,16.22-39.93C240.57,227,219,244.32,186.91,249.88Zm-15-43.62c-.91-5.18-4.37-8.24-9.86-9.13-6-1-11.9,1.6-14.62,6.31a11,11,0,0,0,1.19,13.1C154.48,202.76,156.94,201.64,172,206.27Zm48.3-15c-.45-5.58-3.75-8.49-8.47-9.94-5.34-1.65-11.68.86-15.37,5.74-3.83,5-4.08,9.87-.78,15C203.74,184.61,207,183.15,220.25,191.28ZM221,376.8l1.1-.19,1.93-22.26-10.39.67Z"/>
<path class="cls-1" transform="translate(-101.88 -17.33)" d="M140.16,88.1c0-3.87-.27-8,.06-12,.52-6.31,3.7-9.93,8.68-10.57,5.3-.68,9.6,2.17,11.79,7.84,4.53,11.69.15,28.74-9.42,36.44a4.72,4.72,0,0,1-2.6,1.13c-9.62.15-18.9-1.07-26.85-7.24A17.88,17.88,0,0,1,114.73,91c-.91-8.64,6.9-14.47,14.64-10.63C133.14,82.25,136.34,85.31,140.16,88.1Z"/>
<path class="cls-2" transform="translate(-101.88 -17.33)" d="m186.91 249.88c32.09-5.56 53.66-22.88 62.09-55.76 3.84 11.49-2.78 28.25-16.22 39.93-13.04 11.33-27.5 19.67-45.87 15.83z"/>
<path class="cls-2" transform="translate(-101.88 -17.33)" d="m172 206.27c-15-4.63-17.48-3.51-23.29 10.28a11 11 0 0 1 -1.19 -13.1c2.71-4.71 8.66-7.27 14.62-6.31 5.44 0.86 8.86 3.95 9.86 9.13z"/>
<path class="cls-2" transform="translate(-101.88 -17.33)" d="m220.25 191.28c-13.26-8.13-16.51-6.67-24.62 10.81-3.3-5.15-3-10 0.78-15 3.7-4.88 10-7.39 15.37-5.74 4.72 1.44 8.03 4.35 8.47 9.93z"/>
</svg>
