<?xml version="1.0" encoding="UTF-8"?>
<svg enable-background="new 0 0 441.3 251.2" version="1.1" viewBox="0 0 441.3 251.2" xml:space="preserve" xmlns="http://www.w3.org/2000/svg">
<style type="text/css">
	.st0{fill:#FFFFFF;}
	.st1{fill:#006A71;}
</style>
	<path class="st0" d="m181.9 143.6c6.9-10 12-20.7 11.5-33.4-2.2 11.6-6.5 22.2-13.5 31.7-13.3 18-30.1 30.3-52.8 33.5-14.7 2.2-28.3-0.6-41-8.5 8.1 8.3 18 12.6 29.3 13 29.3 1 50.4-13.2 66.5-36.3z"/>
	<path class="st0" d="m346.5 202.2c-20.7 5-41.7 5-62.6 3.4-25.9-2-51.8-3.3-77.8-1.5-6 0.4-22.2 2.3-24 5.3 7.2-0.7 18.5-2 24.5-1.9 17.2 0.2 34.4-0.5 51.4 0.9 23.4 1.9 46.8 4 70.3 1.5 16.9-1.8 33.1-5.9 47.2-16.1 10.9-8 18.4-18.4 21-32.1-8.7 23.4-27 34.9-50 40.5z"/>
	<path class="st1" d="m441.1 142.7c-1.4-45.9-27-79.4-70.4-94.5-28.6-10-58.1-12.7-88.2-10.2-32.9 2.8-64.4 10.3-92.4 28.9-0.5 0.3-1.1 0.4-1.9 0.7-5.3-9.3-12-16.9-21.5-21.9-1.3-0.7-2.2-2.4-3-3.8-12-21.4-30.2-34.7-53.9-40.4-9.4-2.2-18.9-2.4-27.8 2.3-7 3.7-9.2 8.9-6.1 16 3 6.8 6.7 13.3 10.6 19.7 2.2 3.8 5.5 6.9 8.4 10.5-0.8 0.6-1.2 1.1-1.8 1.4-15.2 8.5-29.2 18.6-39.7 33-1 1.4-3.3 2.3-5.1 2.5-13.9 1.3-27.8 2.4-41.7 3.3-5.7 0.4-6.9 0.9-6.5 6.7 0.2 3.7 0.9 7.7 2.6 11 9.8 19.6 25.1 33 46.6 38.4 5.2 1.3 10.9 0.9 16.3 1.8 2.6 0.5 5 2.2 7.5 3.4 1.1 0.8 1.1 1.2 1.1 1.2s0.3 0.2-1.6 0.1c-1.2 0.1-2.3 0.2-3.4 0.3-20.2 2.5-39.6 7.2-56.3 19.8-7 5.3-8.2 12.6-1.7 18.6 3 2.8 9.7 5.9 13.7 6.8 7 1.5 11.5 1.4 18.6 1.6 8.3 0.2 20.5-0.7 28.7 0.2 16 1.9 22 3.1 41 9.1 12.4 3.9 19.5 4 44 4.2-14.3 4.4-31.2 10.5-40.4 20.7-2 2.3-1.8 6 1.3 7.5 4.1 2 9.8 1.5 11.7 1.4 9.4-0.4 25.1-4.2 34.4-6.1 16.7-3.3 22.3-4.5 51-5 28.3 1 46.1 9.2 73.1 14.4 27.7 5.3 55.5 7.3 83.3 0.5 27.3-6.7 48.8-21.4 61-47.3 8.5-17.9 9.1-37.7 8.5-56.8zm-65.6 51.1c-14.1 10.2-30.3 14.3-47.2 16.1-23.5 2.5-46.9 0.4-70.3-1.5-17-1.4-34.2-0.7-51.4-0.9-6-0.1-17.3 1.2-24.5 1.9 1.8-3 18-4.9 24-5.3 26-1.8 51.9-0.5 77.8 1.5 20.9 1.6 41.9 1.6 62.6-3.4 23-5.6 41.3-17.1 50-40.5-2.6 13.7-10.1 24.1-21 32.1zm-248.4-18.4c22.7-3.2 39.5-15.5 52.8-33.5 7-9.5 11.3-20.1 13.5-31.7 0.5 12.7-4.6 23.4-11.5 33.4-16.1 23.1-37.2 37.3-66.5 36.3-11.3-0.4-21.2-4.7-29.3-13 12.7 7.9 26.3 10.7 41 8.5z"/>
</svg>
