<?xml version="1.0" encoding="UTF-8"?>
<svg enable-background="new 0 0 322.4 494.4" version="1.1" viewBox="0 0 322.4 494.4" xml:space="preserve" xmlns="http://www.w3.org/2000/svg">
<style type="text/css">
	.st0{fill:#FFFFFF;}
	.st1{fill:#006A71;}
</style>
	<path class="st0" d="m185.5 337.8c-6.4 1.8-8.4 3-13.6 6.1-0.8-3.1-1.5-6.1-2.4-9-2.6-7.9-5.5-15.7-12.1-21.3-5.1-4.3-11.7-4-15.8 1.2-2.9 3.6-5.8 7.8-7.1 12.2-4.6 16.3-9 33.1-8.3 50.2 0.2 4.2 1.8 7.7 4.1 11.2 0.7 1 1.2 2.3 1.2 3.4-0.4 6.2 1.3 11.8 4.5 16.9 7.5 12.6 17.3 17.8 32.6 21.1-5.3-2.8-11.3-5.5-16.8-9-10.9-7-17.1-16.9-16.8-30.3 0-0.9-0.1-2.1-0.7-2.6-4.3-4.4-5.1-10-4.6-15.6 0.9-9.8 2.5-19.6 3.9-29.4 1.1-7.6 2.9-15 7-21.8 7.3-12.1 14.1-7.9 19.5-0.3 0.5 0.8 2.2 4.4 2.5 5.3 2.5 6.9 3.8 10.8 6.2 17.7 0.5 1.3 0.8 2.7 1.2 3.9 6.7-3.6 14.6-7.4 21.5-9.7-1.8-0.8-1.7-1.1-6-0.2z"/>
	<path class="st0" d="m111.1 295.5c6.7 24 7.4 46.4-15.2 62.7 8.5-1.6 16.1-8.7 19.7-18.6 5.6-15.4 2.1-29.9-4.5-44.1z"/>
	<path class="st1" d="m318.1 441.5c-2.5-1.7-5.2-3.1-8-4.3-11.3-4.8-22.9-9.3-34.2-14.2-11.4-4.9-22.2-10.9-30.5-20.5-1.1-1.3-1.6-3.4-1.6-5.2-0.1-6.9 0.7-13.8 0-20.6-1.4-12.6-6.3-23.5-16.9-31.4-0.9-0.7-1.4-2.6-1.4-3.9-0.1-12.9-2-25.4-6.6-37.4-1-2.7-1.8-6.7-5.5-6.4-3.4 0.2-3.6 4.1-4.4 6.8-2.6 8.3-6.8 15.8-12 23.5-0.8-1.6-1.3-2.6-1.7-3.7-5.8-14.8-11.7-29.7-17.4-44.6-7.2-18.7-14.7-37.3-26.3-53.9-12.2-17.6-27.5-31.4-48.3-38.1-19.9-6.4-38.7-4.5-55.8 8.2-1.9 1.4-3.6 2.4-6.2 4.5-4.8-3.6-7.3-5.9-10.4-9.6-5.9-6.9-7.3-15.5-7.6-24.2-0.5-15.7 2.5-30.9 5.1-46.2s5.5-30.6 6.4-46c1.4-24.8-7-47-21.4-67-1.5-1.9-3.2-4-5.1-5.6-1.8-1.5-4-2.4-6.4-0.8s-2.1 4-1.4 6.3c1.3 3.8 2.6 7.7 4.2 11.5 9.8 24 13.5 49 9.5 74.7-2.5 15.9-6.3 31.5-9.5 47.3-2.7 13.1-4.8 26.2-2.9 39.6 2.4 16.5 9.8 30.7 20.4 43.2 0.9 1.1 1.7 3 1.4 4.2-1.5 5.9-3.6 11.6-5.2 17.4-3.7 14-4.1 27.9 2.4 41.3 0.3 0.7 0.5 1.4 0.8 2.4-1.6-0.1-2.8-0.2-4.1-0.2-8.5-0.1-14.6 5.9-14.2 14.3 0.1 2.9 0.9 5.9 2.1 8.4 4.1 8.5 10.1 15.6 16.8 22.2 17.2 16.7 34.3 33.6 51.5 50.4 3.5 3.3 7.5 5.6 12.5 5.6 4.8 0 8.4-3.9 7.3-8.5-0.9-3.9-2.5-7.8-4.5-11.2s-4.9-6.2-7.5-9.3c4.6-0.3 7.8 1.1 9.7 5.6 2.8 5.5 6.2 10.7 8.9 16.2 5.6 11.2 10.5 22.6 16.3 33.7 13.3 25.5 33 44.1 59.9 54.8 7.5 3 15.1 5.6 22.6 8.4 18.8 7 37.7 13.6 57.9 15.4 5.1 0.5 10.5 0.1 15.6-0.7 3.7-0.6 5.5-3.8 6-7.4 0.4-3.4-1.1-5.9-4.2-7.4-1.7-0.9-3.3-1.8-5-2.5-16.2-6.5-32.5-12.8-48.6-19.5-9.9-4.2-18.3-10.7-25.9-18.2-1.3-1.2-2.4-2.7-4.2-4.7 5.9 1.2 10.7 2.1 15.4 3.3 7.6 1.9 14.8 1.6 21.2-3.6 0.7-0.5 2.3-0.4 3.1 0 4.5 2.3 9.1 4.6 13.5 7.2 16 9.4 33.4 14.8 51.7 17.4 7.4 1 15 1 21.9-2.7 6.5-3.6 6.8-10.1 0.8-14.3zm-149.3-97.7c-2.4-6.9-3.7-10.8-6.2-17.7-0.3-0.9-2-4.5-2.5-5.3-5.4-7.6-12.2-11.8-19.5 0.3-4.1 6.8-5.9 14.2-7 21.8-1.4 9.8-3 19.6-3.9 29.4-0.5 5.6 0.3 11.2 4.6 15.6 0.6 0.5 0.7 1.7 0.7 2.6-0.3 13.4 5.9 23.3 16.8 30.3 5.5 3.5 11.5 6.2 16.8 9-15.3-3.3-25.1-8.5-32.6-21.1-3.2-5.1-4.9-10.7-4.5-16.9 0-1.1-0.5-2.4-1.2-3.4-2.3-3.5-3.9-7-4.1-11.2-0.7-17.1 3.7-33.9 8.3-50.2 1.3-4.4 4.2-8.6 7.1-12.2 4.1-5.2 10.7-5.5 15.8-1.2 6.6 5.6 9.5 13.4 12.1 21.3 0.9 2.9 1.6 5.9 2.4 9 5.2-3.1 7.2-4.3 13.6-6.1 4.3-0.9 4.2-0.6 6 0.2-6.9 2.3-14.8 6.1-21.5 9.7-0.4-1.2-0.7-2.6-1.2-3.9zm-72.9 14.4c22.6-16.3 21.9-38.7 15.2-62.7 6.6 14.2 10.1 28.7 4.5 44.1-3.6 9.9-11.2 17-19.7 18.6z"/>
</svg>
